{"title":"Consinsual 2011 DVDRip Xvid LKRG","uid":6258710,"size":914006053,"categoryP":"video","categoryS":"movies","magnet":"?xt=urn:btih:5bbff9e166df216bf9715d2ab5cefc2000277b25&amp;dn=Consinsual+2011+DVDRip+Xvid+LKRG&amp;tr=udp%3A%2F%2Ftracker.openbittorrent.com%3A80&amp;tr=udp%3A%2F%2Fopen.demonii.com%3A1337&amp;tr=udp%3A%2F%2Ftracker.coppersurfer.tk%3A6969&amp;tr=udp%3A%2F%2Fexodus.desync.com%3A6969","seeders":1,"leechers":0,"uploader":".BONE.","files":64,"time":1300676422,"description":" &lt;a href=&quot;http://www.grinshare.com/img/OUW67R.png&quot; rel=&quot;nofollow&quot; target=&quot;_NEW&quot;&gt;http://www.grinshare.com/img/OUW67R.png&lt;/a&gt;\n &lt;a href=&quot;\nhttp://www.grinshare.com/img/R87F2M.png&quot; rel=&quot;nofollow&quot; target=&quot;_NEW&quot;&gt;\nhttp://www.grinshare.com/img/R87F2M.png&lt;/a&gt;\n &lt;a href=&quot;\nhttp://www.grinshare.com/img/332KDV.png&quot; rel=&quot;nofollow&quot; target=&quot;_NEW&quot;&gt;\nhttp://www.grinshare.com/img/332KDV.png&lt;/a&gt;\n &lt;a href=&quot;\nhttp://www.grinshare.com/img/KR76TN.png&quot; rel=&quot;nofollow&quot; target=&quot;_NEW&quot;&gt;\nhttp://www.grinshare.com/img/KR76TN.png&lt;/a&gt;\n &lt;a href=&quot;\nhttp://www.grinshare.com/img/8W84PG.png&quot; rel=&quot;nofollow&quot; target=&quot;_NEW&quot;&gt;\nhttp://www.grinshare.com/img/8W84PG.png&lt;/a&gt;\n &lt;a href=&quot;\nhttp://www.grinshare.com/img/B32J3G.png&quot; rel=&quot;nofollow&quot; target=&quot;_NEW&quot;&gt;\nhttp://www.grinshare.com/img/B32J3G.png&lt;/a&gt;\n\nFormat;AVI\n\nFile Size:890mb\n\nVideo\nID : 0\nFormat : MPEG-4 Visual\nFormat profile : Advanced Simple@L5\nFormat settings, BVOP : Yes\nFormat settings, QPel : No\nFormat settings, GMC : No warppoints\nFormat settings, Matrix : Custom\nCodec ID : XVID\nCodec ID/Hint : XviD\nDuration : 1h 37mn\nBit rate : 1 056 Kbps\nWidth : 680 pixels\nHeight : 384 pixels\nDisplay aspect ratio : 16:9\nFrame rate : 29.970 fps\nColor space : YUV\nChroma subsampling : 4:2:0\nBit depth : 8 bits\nScan type : Progressive\nBits/(Pixel*Frame) : 0.135\nStream size : 737 MiB (84%)\nWriting library : XviD 1.2.1 (UTC 2008-12-04)\n\nAudio\nID : 1\nFormat : AC-3\nFormat/Info : Audio Coding 3\nMode extension : CM (complete main)\nCodec ID : 2000\nDuration : 1h 37mn\nBit rate mode : Constant\nBit rate : 192 Kbps\nChannel(s) : 2 channels\nChannel positions : Front: L R\nSampling rate : 48.0 KHz\nBit depth : 16 bits\nStream size : 134 MiB (15%)\nAlignment : Aligned on interleaves\nInterleave, duration : 33 ms (1.00 video frame)\nInterleave, preload duration : 512 ms\n\nDuration:1:37\n\nRelease Date:2011\n\nLanguage:English\n\n\nA couple who seems to have it all pushes their sex life to the edge. The story gets intertwined when an old flame, betrayal, lust and deceit enter the picture./b]\n &lt;a href=&quot;\nhttp://www.imdb.com/title/tt1704578/&quot; rel=&quot;nofollow&quot; target=&quot;_NEW&quot;&gt;\nhttp://www.imdb.com/title/tt1704578/&lt;/a&gt;","torrent":{"xt":"urn:btih:5bbff9e166df216bf9715d2ab5cefc2000277b25","amp;dn":"Consinsual+2011+DVDRip+Xvid+LKRG","amp;tr":["udp%3A%2F%2Ftracker.openbittorrent.com%3A80","udp%3A%2F%2Fopen.demonii.com%3A1337","udp%3A%2F%2Ftracker.coppersurfer.tk%3A6969","udp%3A%2F%2Fexodus.desync.com%3A6969"],"infoHash":"5bbff9e166df216bf9715d2ab5cefc2000277b25","infoHashBuffer":{"type":"Buffer","data":[91,191,249,225,102,223,33,107,249,113,93,42,181,206,252,32,0,39,123,37]},"announce":[],"urlList":[]}}